<svg width="18" height="18" viewBox="0 0 18 18" fill="none" xmlns="http://www.w3.org/2000/svg">
<path fill-rule="evenodd" clip-rule="evenodd" d="M1.7772 0H13.9443V2H1.7772L0.112101 1.17889C-0.037367 1.10516 -0.037367 0.894836 0.112101 0.821106L1.7772 0ZM14.9582 0H16.9861C17.546 0 18 0.447693 18 1C18 1.55231 17.546 2 16.9861 2H14.9582V1V0ZM11.1786 6.01887V5.22642C11.1786 5.06918 11.25 4.99057 11.3929 4.99057H11.5989C11.7473 4.99057 11.8214 5.06918 11.8214 5.22642V5.78302C11.8214 6.00314 11.7967 6.18868 11.7473 6.33962C11.7033 6.49057 11.6126 6.66352 11.4753 6.85849L10.0247 9.08491V10H13V9.00943H11.4588L12.5137 7.24528C12.6786 6.99371 12.7967 6.76415 12.8681 6.5566C12.9451 6.34277 12.9835 6.0912 12.9835 5.80189V5.03774C12.9835 4.34591 12.6319 4 11.9286 4H11.0385C10.3462 4 10 4.34591 10 5.03774V6.01887H11.1786ZM2.8125 12H17.4375C17.7482 12 18 12.2686 18 12.6V12.6462C18 12.952 17.7675 13.2 17.4808 13.2H17.4375C16.5055 13.2 15.75 14.0059 15.75 15C15.75 15.9941 16.5055 16.8 17.4375 16.8H17.4808C17.7675 16.8 18 17.048 18 17.3538V17.4C18 17.7314 17.7482 18 17.4375 18H2.8125C1.2592 18 0 16.6569 0 15C0 13.3431 1.2592 12 2.8125 12ZM3.375 15C3.375 14.6686 3.62684 14.4 3.9375 14.4H12.9375C13.2482 14.4 13.5 14.6686 13.5 15C13.5 15.3314 13.2482 15.6 12.9375 15.6H3.9375C3.62684 15.6 3.375 15.3314 3.375 15ZM7.65134 8.77358V5.22642C7.65134 5.06918 7.56646 4.99057 7.3967 4.99057H7.04774C6.87798 4.99057 6.7931 5.06918 6.7931 5.22642V8.77358C6.7931 8.93082 6.87798 9.00943 7.04774 9.00943H7.3967C7.56646 9.00943 7.65134 8.93082 7.65134 8.77358ZM9 5.03774V8.95283C9 9.65094 8.60389 10 7.81167 10H6.6422C5.8437 10 5.44444 9.65094 5.44444 8.95283V5.03774C5.44444 4.34591 5.8437 4 6.6422 4H7.81167C8.60389 4 9 4.34591 9 5.03774ZM2.39683 6.01887V5.22642C2.39683 5.06918 2.48148 4.99057 2.65079 4.99057H2.89499C3.07082 4.99057 3.15873 5.06918 3.15873 5.22642V5.78302C3.15873 6.00314 3.12943 6.18868 3.07082 6.33962C3.01872 6.49057 2.91127 6.66352 2.74847 6.85849L1.0293 9.08491V10H4.55556V9.00943H2.72894L3.97924 7.24528C4.1746 6.99371 4.31461 6.76415 4.39927 6.5566C4.49044 6.34277 4.53602 6.0912 4.53602 5.80189V5.03774C4.53602 4.34591 4.11925 4 3.28571 4H2.23077C1.41026 4 1 4.34591 1 5.03774V6.01887H2.39683ZM15.2287 6.46226H16.1854C16.9285 6.46226 17.3 6.80818 17.3 7.5V8.95283C17.3 9.65094 16.9285 10 16.1854 10H15.1146C14.3715 10 14 9.65094 14 8.95283V5.03774C14 4.34591 14.3715 4 15.1146 4H16.1239C16.867 4 17.2386 4.34591 17.2386 5.03774V5.84906H16.0098V5.22642C16.0098 5.06918 15.9309 4.99057 15.7729 4.99057H15.4569C15.3048 4.99057 15.2287 5.06918 15.2287 5.22642V6.46226ZM16.0713 8.77359V7.65094C16.0713 7.49371 15.9923 7.41509 15.8343 7.41509H15.2287V8.77359C15.2287 8.93082 15.3048 9.00943 15.4569 9.00943H15.8343C15.9923 9.00943 16.0713 8.93082 16.0713 8.77359Z" fill="white"/>
</svg>
