<svg width="13" height="12" viewBox="0 0 13 12" fill="none" xmlns="http://www.w3.org/2000/svg">
<g clip-path="url(#clip0_29_1328)">
<path d="M12.025 2.60608C12.0043 2.43665 12.0081 2.2647 11.9555 2.09871C11.7875 1.57035 11.4978 1.12374 11.0921 0.74509C10.7292 0.406841 10.3062 0.187919 9.83629 0.0504271C9.72805 0.0187945 9.61573 0.00971193 9.5028 0.0250584C9.49873 0.0310091 9.4956 0.0366466 9.49278 0.0419708C9.36452 0.0231792 9.2375 0.00031613 9.10641 0.00031613C7.08634 0.0015689 5.06595 0.00219529 3.04588 2.93657e-06C2.81875 -0.000310257 2.596 0.024432 2.37481 0.0726638C1.04426 0.363307 0.0509617 1.59604 0.0509617 2.95686C0.0509617 4.77244 0.0509617 6.58771 0.0512745 8.40329C0.0512745 8.42584 0.0519002 8.4487 0.0522131 8.47126C0.0484589 8.52387 0.0450175 8.57649 0.0412633 8.6291C0.0375091 8.81263 0.0337549 8.99648 0.0415762 9.17938C0.0500231 9.38108 0.0412633 9.58779 0.0978892 9.78291C0.393846 10.7983 1.03675 11.4961 2.02348 11.8794C2.24248 11.9646 2.47242 11.9602 2.69674 12C3.81267 12 4.92861 12 6.04424 12C6.66837 12 7.29282 12 7.91696 12C8.18225 12 8.44755 12 8.71285 12C8.75978 12 8.80639 12 8.85332 12C9.02507 12 9.19652 12 9.36827 12C9.39611 11.9784 9.42834 11.989 9.45837 11.9887C9.81377 11.9872 10.1423 11.8813 10.4507 11.7153C10.8102 11.5218 11.1312 11.2768 11.3877 10.9543C11.7024 10.5584 11.9515 10.1321 12.0084 9.61629C12.0181 9.52828 12.0156 9.43871 12.0369 9.35164C12.0369 7.34407 12.0369 5.3365 12.0369 3.32862C12.0369 3.28164 12.0369 3.23498 12.0369 3.188C12.0369 3.01605 12.0369 2.84442 12.0369 2.67248C12.0187 2.65306 12.0278 2.62863 12.025 2.60608Z" fill="#2E7BFF"/>
<path d="M5.3928 12C5.3928 10.5434 5.39154 9.08639 5.39561 7.62973C5.39592 7.5198 5.36433 7.49568 5.26046 7.49787C4.94073 7.50445 4.62068 7.50132 4.30095 7.50007C4.04785 7.49913 3.89581 7.34472 3.89487 7.08916C3.89393 6.73775 3.89362 6.38604 3.89487 6.03463C3.89581 5.77782 4.04629 5.62654 4.3022 5.6256C4.63382 5.62435 4.96544 5.6231 5.29706 5.62686C5.37309 5.6278 5.39561 5.60681 5.39467 5.52977C5.39061 5.19778 5.39655 4.8658 5.39186 4.53381C5.39092 3.94282 5.45161 3.4652 5.45161 3.4652C5.47914 3.32238 5.49666 3.28699 5.51387 3.24126C5.59365 3.02641 5.71378 2.8338 5.86051 2.66217C6.32947 2.11471 6.92263 1.82218 7.65001 1.82156C8.00447 1.82124 8.35924 1.83033 8.71339 1.81905C8.99308 1.81028 9.20488 2.0195 9.19486 2.29824C9.18392 2.59765 9.19142 2.89769 9.19174 3.19773C9.1958 3.26005 9.19393 3.32269 9.19111 3.38502C9.18079 3.62774 9.01623 3.79624 8.77346 3.80251C8.4653 3.81065 8.15714 3.80438 7.84898 3.80532C7.79048 3.80564 7.73198 3.80438 7.67347 3.80658C7.4501 3.81597 7.32652 3.93624 7.32246 4.16017C7.3162 4.5075 7.32089 4.85515 7.32027 5.20279C7.32027 5.26136 7.31964 5.31993 7.32058 5.37849C7.32277 5.54762 7.34217 5.56923 7.5086 5.56985C7.8712 5.57173 8.2341 5.57017 8.59669 5.57048C8.69086 5.57048 8.85198 5.55576 8.93801 5.6018C9.0619 5.6682 9.12666 5.74305 9.12573 5.89746C9.12541 5.95508 9.12447 6.01647 9.10383 6.10103C9.02374 6.44272 8.9596 6.78818 8.89422 7.13269C8.84604 7.38763 8.68617 7.56364 8.38333 7.55581C8.10302 7.54861 7.82208 7.55362 7.54145 7.55456C7.33747 7.55519 7.32089 7.57116 7.32058 7.7738C7.31995 9.08482 7.32089 10.3955 7.31995 11.7066C7.31995 11.7338 7.32433 11.7611 7.31682 11.788C7.29899 11.8582 7.34217 11.943 7.26552 11.9988C6.64138 12 6.01693 12 5.3928 12Z" fill="#EEF0F3"/>
</g>
<defs>
<clipPath id="clip0_29_1328">
<rect width="12" height="12" fill="white" transform="translate(0.036499)"/>
</clipPath>
</defs>
</svg>
