<svg width="19" height="18" viewBox="0 0 19 18" fill="none" xmlns="http://www.w3.org/2000/svg">
<path fill-rule="evenodd" clip-rule="evenodd" d="M8.5348 15.7564C6.71336 13.6054 5.01771 11.3722 3.82253 8.81965C3.44788 8.01878 3.15785 7.1903 3.066 6.30772C3.05559 6.20535 3.04998 6.10272 3.04438 6.00002C3.04189 5.95451 3.0394 5.90898 3.0365 5.86345C3.06044 2.97056 5.20921 0.530594 8.14457 0.0706318C11.2653 -0.418551 14.3198 1.68699 14.931 4.72166C15.1826 5.97059 14.9633 7.14647 14.4929 8.30287C13.9524 9.63297 13.2387 10.877 12.3998 12.0448C11.7926 12.8901 11.1542 13.7143 10.5159 14.5385C10.2442 14.8893 9.97253 15.2401 9.70327 15.5925C9.65762 15.6514 9.60641 15.7072 9.55464 15.7618C9.25793 16.0751 8.8137 16.0854 8.5348 15.7564ZM11.4935 5.83747C11.4908 4.53443 10.3924 3.46623 9.05363 3.46353C7.70368 3.46082 6.5959 4.53389 6.59812 5.84234C6.59979 7.14539 7.69422 8.20871 9.03804 8.21304C10.3908 8.21737 11.4969 7.14755 11.4935 5.83747ZM16.9695 13.0822C17.5144 13.4493 17.9253 13.8926 18.0187 14.5041C18.0992 15.0277 17.8943 15.4766 17.5182 15.8771C16.9392 16.4909 16.1477 16.8381 15.3117 17.1183C13.9875 17.5622 12.6035 17.7897 11.1917 17.9073C9.48173 18.0496 7.77434 18.0331 6.07275 17.8232C4.53991 17.6347 3.04506 17.3359 1.6816 16.6749C1.21659 16.4496 0.802465 16.17 0.483014 15.7986C-0.174564 15.0332 -0.10243 14.1349 0.676874 13.4196C1.27134 12.874 2.03003 12.5488 2.82415 12.2762C3.07726 12.1894 3.33746 12.118 3.59701 12.0477C4.06266 11.9219 4.49353 12.0955 4.6275 12.4576C4.7621 12.8202 4.52187 13.1504 4.06202 13.3048C3.48945 13.4971 2.92269 13.7058 2.3688 13.9344C2.15755 14.0212 1.97271 14.169 1.80332 14.3129C1.50577 14.5657 1.50384 14.8052 1.77756 15.075C2.12793 15.4206 2.591 15.6277 3.07082 15.8074C4.27456 16.2573 5.54785 16.4722 6.84626 16.5832C7.34328 16.6257 7.84301 16.6486 8.34277 16.6715C8.57287 16.6821 8.80297 16.6927 9.03282 16.7051C10.8594 16.6738 12.6588 16.5211 14.3959 16.0118C14.9897 15.8376 15.5629 15.6233 16.0536 15.2777C16.6423 14.8629 16.6384 14.5404 16.0427 14.1327C15.436 13.7179 14.723 13.491 13.9933 13.2943C13.5921 13.1861 13.3821 12.9202 13.4188 12.5801C13.451 12.2806 13.726 12.0427 14.0964 12.0048C14.1891 11.9949 14.2915 11.9999 14.381 12.023C15.3091 12.2603 16.2005 12.5647 16.9695 13.0822Z" fill="#F40C44"/>
</svg>
