<svg width="17" height="16" viewBox="0 0 17 16" fill="none" xmlns="http://www.w3.org/2000/svg">
<path fill-rule="evenodd" clip-rule="evenodd" d="M4.0365 1C1.82736 1 0.036499 2.79086 0.036499 5V11C0.036499 13.2091 1.82736 15 4.0365 15H12.0365C14.2456 15 16.0365 13.2091 16.0365 11V5C16.0365 2.79086 14.2456 1 12.0365 1H4.0365ZM2.74455 3.60895C2.39443 3.35666 1.92139 3.45892 1.68798 3.83736C1.45457 4.21579 1.54918 4.7271 1.89929 4.97939L8.03621 9.40157L14.1731 4.97939C14.5232 4.7271 14.6178 4.21579 14.3844 3.83736C14.151 3.45892 13.678 3.35666 13.3279 3.60895L8.03621 7.42206L2.74455 3.60895Z" fill="#F40C44"/>
</svg>
