<svg width="17" height="16" viewBox="0 0 17 16" fill="none" xmlns="http://www.w3.org/2000/svg">
<g clip-path="url(#clip0_29_1409)">
<path d="M12.0102 10.6287C11.8616 10.4795 11.685 10.3612 11.4905 10.2805C11.2961 10.1997 11.0876 10.1582 10.877 10.1582C10.6665 10.1582 10.458 10.1997 10.2636 10.2805C10.0691 10.3612 9.89254 10.4795 9.74392 10.6287L8.97072 11.4019C8.10016 10.8494 7.29359 10.202 6.56582 9.47156C5.83542 8.74379 5.18802 7.93722 4.63551 7.06666L5.4087 6.29346C5.55784 6.14485 5.67617 5.96825 5.75691 5.7738C5.83765 5.57935 5.87921 5.37088 5.87921 5.16034C5.87921 4.94979 5.83765 4.74132 5.75691 4.54687C5.67617 4.35242 5.55784 4.17583 5.4087 4.02721L3.89964 2.52348C3.75312 2.37385 3.57801 2.2552 3.38473 2.17459C3.19145 2.09398 2.98393 2.05305 2.77451 2.05423C2.56361 2.05371 2.35468 2.09491 2.15976 2.17544C1.96483 2.25597 1.78775 2.37425 1.63872 2.52348L0.913513 3.24335C0.567853 3.615 0.309874 4.05939 0.158538 4.54385C0.00720146 5.02831 -0.0336437 5.54052 0.0390045 6.04284C0.20964 8.04248 1.5214 10.4474 3.54237 12.4737C5.56334 14.5 7.9949 15.8064 9.99454 15.9984C10.1437 16.0064 10.2933 16.0064 10.4425 15.9984C10.8729 16.0164 11.3026 15.9484 11.7064 15.7982C12.1102 15.6481 12.48 15.4188 12.794 15.1239L13.5139 14.3987C13.6631 14.2496 13.7814 14.0726 13.8619 13.8776C13.9425 13.6827 13.9837 13.4738 13.9831 13.2629C13.9843 13.0535 13.9434 12.8459 13.8628 12.6527C13.7822 12.4594 13.6635 12.2843 13.5139 12.1377L12.0102 10.6287ZM13.6899 2.34218C12.9488 1.5983 12.0678 1.00847 11.0977 0.606695C10.1276 0.204924 9.08757 -0.000839941 8.03756 0.00126724C7.89613 0.00126724 7.7605 0.0574474 7.6605 0.157449C7.5605 0.25745 7.50432 0.393081 7.50432 0.534504C7.50432 0.675927 7.5605 0.811558 7.6605 0.91156C7.7605 1.01156 7.89613 1.06774 8.03756 1.06774C8.95285 1.06771 9.85908 1.24894 10.704 1.60097C11.5489 1.953 12.3157 2.46887 12.9601 3.11879C13.6046 3.76872 14.114 4.53985 14.4589 5.38767C14.8038 6.23549 14.9774 7.14322 14.9696 8.05848C14.9696 8.1999 15.0258 8.33553 15.1258 8.43553C15.2258 8.53553 15.3615 8.59172 15.5029 8.59172C15.6443 8.59172 15.7799 8.53553 15.8799 8.43553C15.9799 8.33553 16.0361 8.1999 16.0361 8.05848C16.0463 6.9973 15.844 5.94482 15.441 4.96307C15.0381 3.98132 14.4427 3.09018 13.6899 2.34218Z" fill="#F40C44"/>
<path d="M10.6558 5.39231C10.9584 5.6931 11.1978 6.05138 11.3599 6.44607C11.522 6.84077 11.6035 7.2639 11.5996 7.69056C11.5996 7.83198 11.6558 7.96761 11.7558 8.06761C11.8558 8.16761 11.9914 8.22379 12.1328 8.22379C12.2743 8.22379 12.4099 8.16761 12.5099 8.06761C12.6099 7.96761 12.6661 7.83198 12.6661 7.69056C12.6731 7.12588 12.568 6.56542 12.3568 6.04169C12.1456 5.51796 11.8325 5.04137 11.4356 4.63958C11.0388 4.23779 10.5661 3.91879 10.0451 3.70108C9.52401 3.48338 8.9649 3.37129 8.40018 3.37134C8.25876 3.37134 8.12313 3.42752 8.02312 3.52752C7.92312 3.62752 7.86694 3.76315 7.86694 3.90457C7.86694 4.046 7.92312 4.18163 8.02312 4.28163C8.12313 4.38163 8.25876 4.43781 8.40018 4.43781C8.82041 4.44098 9.23591 4.5269 9.62293 4.69068C10.0099 4.85445 10.3609 5.09287 10.6558 5.39231Z" fill="#F40C44"/>
</g>
<defs>
<clipPath id="clip0_29_1409">
<rect width="16" height="16" fill="white" transform="translate(0.036499)"/>
</clipPath>
</defs>
</svg>
