<svg width="11" height="10" viewBox="0 0 11 10" fill="none" xmlns="http://www.w3.org/2000/svg">
<path fill-rule="evenodd" clip-rule="evenodd" d="M0.0367966 4.94378C0.0670077 2.19902 2.31617 -0.0150272 5.08153 7.68215e-05C7.8047 0.0151809 10.0377 2.257 10.0365 4.99882C10.0356 7.77778 7.79949 10.0062 5.00965 9.99999C2.25453 9.99339 0.00675914 7.73386 0.0367966 4.94378ZM1.70692 7.58751L1.6201 7.3481C1.53641 7.11807 1.49683 6.89012 1.66906 6.67779C1.72028 6.61443 1.73174 6.40123 1.68174 6.36651C1.63343 6.33306 1.58233 6.30373 1.53121 6.27438C1.48789 6.24952 1.44455 6.22464 1.40289 6.19724C1.3581 6.1679 1.3107 6.13162 1.28448 6.08665C1.2623 6.04894 1.24555 6.00766 1.22881 5.96636C1.21017 5.92039 1.19153 5.87442 1.16537 5.83336C1.1086 5.74254 1.04115 5.65885 0.964486 5.58405C0.864129 5.48805 0.821938 5.38128 0.839301 5.24395C0.849892 5.1535 0.841558 5.05611 0.76985 4.99309C0.629559 4.86965 0.591535 4.71844 0.608898 4.54066C0.612544 4.50438 0.603168 4.45264 0.579034 4.43007C0.526968 4.38151 0.469604 4.33851 0.412173 4.29546C0.389741 4.27864 0.367299 4.26182 0.345158 4.24466L0.3146 4.26653C0.120485 5.84117 0.564797 7.20487 1.67288 8.34792C1.65546 8.24681 1.63417 8.1467 1.61291 8.04671C1.59646 7.96934 1.58003 7.89204 1.56541 7.81442C1.53832 7.67119 1.55812 7.64428 1.70692 7.58751ZM2.71517 1.36829C2.81917 1.34468 2.87282 1.27055 2.88202 1.16187C2.8856 1.10484 2.89747 1.04864 2.91727 0.995033C2.94887 0.91552 3.02683 0.874548 3.0803 0.903194C3.15286 0.941759 3.13629 1.00659 3.12074 1.06743C3.1204 1.06877 3.12006 1.07009 3.11972 1.07142C3.11551 1.08904 3.10796 1.10574 3.10038 1.12248C3.09482 1.13477 3.08926 1.14708 3.08499 1.15979C3.06636 1.21099 3.05048 1.26314 3.03742 1.31604C3.02231 1.38461 3.05079 1.42975 3.12423 1.41239C3.2581 1.38114 3.39092 1.34416 3.52219 1.30354C3.56233 1.29108 3.60147 1.27506 3.64056 1.25907C3.69244 1.23784 3.74421 1.21666 3.79808 1.20389C3.91007 1.17715 3.92951 1.19816 3.92604 1.31413C3.92378 1.3893 3.95729 1.41256 4.02675 1.40232C4.10736 1.39016 4.18182 1.35206 4.23884 1.29379C4.29586 1.23552 4.33234 1.16026 4.34275 1.07941C4.36011 0.926284 4.41515 0.871076 4.56395 0.843819C4.58437 0.840038 4.60495 0.836493 4.62557 0.832942C4.71096 0.818232 4.79697 0.803416 4.87543 0.77125C4.96784 0.733235 5.05177 0.677231 5.12233 0.606495C5.16105 0.566912 5.16695 0.486878 5.17147 0.423858C5.17455 0.379053 5.16841 0.333682 5.16177 0.28465C5.15868 0.261866 5.15549 0.238292 5.15306 0.213617C4.31623 0.190847 3.48837 0.390841 2.75423 0.793125C2.00034 1.20389 1.40307 1.77923 0.943824 2.53061C0.973576 2.51854 1.0009 2.50679 1.02669 2.4957C1.08217 2.47184 1.13057 2.45103 1.18083 2.43669C1.24906 2.41707 1.29281 2.38009 1.31365 2.31395C1.34924 2.20093 1.43328 2.15596 1.5444 2.15301C1.59929 2.15226 1.65417 2.15446 1.70882 2.15961L1.71052 2.15974C1.8736 2.17263 1.87384 2.17265 1.94478 2.02766C1.97699 2.04429 2.00772 2.06363 2.03663 2.08547C2.10539 2.14641 2.18508 2.15544 2.2719 2.14849C2.32867 2.14381 2.3509 2.11603 2.35663 2.06048C2.35908 2.03669 2.36118 2.01274 2.36328 1.98875C2.37102 1.90049 2.37881 1.81167 2.4042 1.72853C2.45316 1.56725 2.51966 1.41274 2.71517 1.36829ZM9.37151 4.7233C9.40866 4.80524 9.46092 4.88198 9.56111 4.93406C9.56521 4.89815 9.56923 4.86347 9.57315 4.8297C9.58298 4.74495 9.59215 4.66589 9.60035 4.58719C9.61352 4.48065 9.59454 4.37261 9.54583 4.27695C9.42064 4.03285 9.44773 3.77591 9.5111 3.52296C9.5269 3.45994 9.53576 3.40907 9.51232 3.34935C8.91504 1.82055 7.82814 0.827847 6.2516 0.371254C6.22242 0.362829 6.19269 0.355986 6.15889 0.348204C6.13558 0.342836 6.11032 0.337022 6.08197 0.329935C6.13086 0.384173 6.16135 0.419334 6.19518 0.458332L6.19569 0.458927C6.22973 0.498163 6.26376 0.537572 6.29605 0.57837C6.40179 0.712223 6.39901 0.767431 6.31046 0.913958C6.26462 0.989472 6.23027 1.07139 6.20854 1.15701C6.18741 1.24216 6.13374 1.24109 6.07527 1.23992C6.06841 1.23979 6.06148 1.23965 6.05454 1.23965C5.98187 1.23829 5.9841 1.18856 5.98634 1.13852L5.98647 1.13548C5.98647 1.12878 5.98622 1.12203 5.98597 1.11528C5.98547 1.10176 5.98497 1.08821 5.98647 1.07489C5.99585 0.98861 5.95314 0.945381 5.87188 0.933749C5.84924 0.930473 5.82632 0.928168 5.80342 0.925863C5.75712 0.921204 5.71085 0.916548 5.66683 0.903888C5.51612 0.860139 5.3925 0.892951 5.27582 0.999026C5.22898 1.04201 5.17019 1.07229 5.11157 1.10248C5.09088 1.11313 5.07022 1.12378 5.0501 1.13496C5.03037 1.14594 5.00944 1.15505 4.98856 1.16415C4.95892 1.17705 4.92936 1.18992 4.90339 1.20805C4.81918 1.26673 4.79053 1.38322 4.82317 1.4893C4.85061 1.57801 4.91919 1.60996 5.00149 1.6143C5.02908 1.6157 5.05705 1.60859 5.08783 1.60077C5.10296 1.59692 5.11876 1.59291 5.13553 1.58965C5.14052 1.6194 5.14879 1.64851 5.16018 1.67645L5.16166 1.67925C5.17757 1.70956 5.20015 1.75257 5.22338 1.7551C5.25637 1.75857 5.31245 1.73635 5.32409 1.70978C5.34755 1.65663 5.3571 1.59652 5.36648 1.53756C5.3678 1.52931 5.3691 1.52109 5.37045 1.51291C5.37389 1.49142 5.37438 1.46897 5.37486 1.44666C5.37564 1.41055 5.37641 1.37478 5.38972 1.34399C5.40467 1.30938 5.43378 1.28081 5.46285 1.25227C5.47563 1.23972 5.48841 1.22717 5.49997 1.21413C5.51127 1.23083 5.52525 1.24735 5.53922 1.26385C5.56969 1.29985 5.60014 1.33583 5.60276 1.37368C5.61363 1.53108 5.60473 1.68997 5.59589 1.84793L5.59529 1.85857C5.59356 1.88878 5.5564 1.94086 5.53661 1.94086C5.43167 1.94039 5.32703 1.92993 5.22408 1.90961C5.21292 1.90711 5.20164 1.90443 5.19029 1.90173C5.09981 1.88022 5.00534 1.85776 4.93638 1.92193C4.86997 1.98397 4.79494 2.03607 4.71361 2.07662C4.64277 2.11238 4.57853 2.08617 4.57037 2.00596C4.56932 1.99544 4.5689 1.98485 4.56847 1.9744C4.56644 1.92421 4.56455 1.87745 4.49484 1.85805C4.48172 1.85444 4.47494 1.82244 4.46934 1.79598C4.4682 1.79059 4.46711 1.78543 4.46602 1.78079C4.46177 1.76334 4.45901 1.74546 4.45626 1.72762C4.45238 1.70251 4.44852 1.67746 4.4405 1.65371C4.40543 1.54989 4.34309 1.53461 4.26948 1.61465C4.19009 1.69884 4.11581 1.78771 4.04706 1.88079C4.02763 1.90796 4.02056 1.94398 4.01348 1.98001C4.01025 1.99646 4.00702 2.01291 4.00261 2.02853H4.14933C4.15079 2.03379 4.15155 2.03922 4.15158 2.04468C4.16131 2.17072 4.18839 2.18356 4.30333 2.13148C4.34503 2.11262 4.39064 2.10405 4.43633 2.10648C4.46203 2.10909 4.50873 2.14763 4.50578 2.16117C4.49775 2.19757 4.47582 2.2294 4.44467 2.24988C4.41591 2.26519 4.37379 2.26062 4.33756 2.25669L4.33407 2.25631C4.25541 2.24745 4.22728 2.28478 4.23805 2.35717C4.24461 2.39063 4.25331 2.42362 4.26409 2.45596C4.27972 2.51065 4.29564 2.56535 4.31157 2.62004C4.31687 2.63827 4.32217 2.65649 4.32747 2.67471L4.30507 2.70283C4.28834 2.69796 4.27119 2.69388 4.25403 2.6898C4.21616 2.68079 4.17827 2.67178 4.14481 2.65422C4.06095 2.61012 4.02987 2.61325 3.97778 2.69172L3.97714 2.6927C3.96663 2.70873 3.95281 2.72981 3.93715 2.73339C3.85364 2.75231 3.83489 2.81429 3.82134 2.88616C3.8157 2.91575 3.80495 2.94435 3.79201 2.97873C3.78544 2.9962 3.7783 3.01516 3.77099 3.03651C3.79096 3.04686 3.81116 3.05741 3.83155 3.06804C3.8631 3.08451 3.89508 3.1012 3.92726 3.11776C4.03143 3.17158 4.05574 3.2596 3.98282 3.35248C3.93565 3.41096 3.88252 3.46437 3.8243 3.51185C3.75762 3.56757 3.688 3.61984 3.61839 3.67211C3.46611 3.78644 3.31383 3.90078 3.19229 4.05126C3.18268 4.06228 3.17084 4.07115 3.15757 4.0773C3.02197 4.14257 2.98168 4.25351 2.98568 4.39778C2.9881 4.48608 2.97988 4.57437 2.97163 4.66308C2.96862 4.69542 2.96561 4.72781 2.96311 4.76028C2.96093 4.78918 2.95651 4.81835 2.9521 4.84748C2.94351 4.90426 2.93493 4.96092 2.94297 5.01531C2.97771 5.23897 3.05892 5.45288 3.18136 5.64326C3.26331 5.77398 3.37894 5.87225 3.53104 5.89256C3.67666 5.90992 3.82383 5.90992 3.96945 5.89256C4.06265 5.88265 4.15463 5.86134 4.24666 5.84002C4.30138 5.82734 4.35612 5.81466 4.41116 5.80436C4.48668 5.79013 4.57159 5.78891 4.60822 5.87242C4.6643 5.99968 4.75893 6.03145 4.88741 6.02641C5.01034 6.02155 5.04142 6.06131 5.02771 6.18561C5.02594 6.22027 5.01497 6.25382 4.99593 6.28283C4.93759 6.35558 4.95773 6.42155 4.99975 6.48995C5.09478 6.64458 5.18953 6.79949 5.28398 6.9547C5.28909 6.96306 5.29423 6.97141 5.29937 6.97976C5.32754 7.02557 5.35578 7.07148 5.38104 7.11876C5.44372 7.23699 5.45101 7.3481 5.34267 7.44862C5.31027 7.4767 5.28624 7.51316 5.27321 7.554C5.23137 7.72674 5.24231 7.88803 5.4076 7.99948C5.46542 8.03855 5.47462 8.09237 5.47341 8.15764C5.47324 8.16709 5.47294 8.17677 5.47264 8.18659C5.47078 8.2475 5.46876 8.31353 5.49598 8.35972C5.55246 8.45388 5.58011 8.56252 5.5755 8.67222C5.57342 8.74878 5.62411 8.8 5.70173 8.79288C5.78106 8.78428 5.85924 8.76716 5.93491 8.74184C5.97503 8.72913 6.01425 8.71256 6.0534 8.69603C6.11318 8.67077 6.17278 8.6456 6.23511 8.63437C6.36029 8.61215 6.45683 8.56024 6.53253 8.46076C6.61726 8.3507 6.72231 8.27934 6.86503 8.26493C7.00775 8.25052 7.06348 8.17709 7.06522 8.0382C7.06557 8.01494 7.06626 7.99185 7.0673 7.96876C7.08085 7.69098 7.18832 7.47779 7.47637 7.39237C7.48542 7.3898 7.494 7.38555 7.5026 7.3813C7.50967 7.3778 7.51675 7.3743 7.52412 7.37171C7.62187 7.33768 7.64531 7.26494 7.63003 7.17137C7.62501 7.14581 7.62171 7.11994 7.62013 7.09394C7.61859 7.04209 7.61665 6.99022 7.61472 6.93834C7.60947 6.79755 7.60422 6.65668 7.60676 6.51599C7.60954 6.37172 7.68281 6.25453 7.779 6.14742C7.99065 5.91235 8.17834 5.65923 8.31568 5.3726C8.36308 5.27364 8.39381 5.16843 8.35631 5.03215C8.32764 5.04412 8.29923 5.05498 8.27133 5.06565C8.21103 5.0887 8.1531 5.11085 8.10004 5.14135C7.89186 5.26149 7.8198 5.25559 7.65121 5.08527C7.63836 5.0737 7.62635 5.06123 7.61527 5.04795C7.57523 4.99363 7.53516 4.93932 7.49508 4.88502C7.31896 4.64636 7.14282 4.40766 6.96955 4.16723C6.93992 4.12589 6.92095 4.07676 6.90221 4.02821C6.89789 4.01702 6.89359 4.00586 6.88916 3.99483C6.88221 3.97729 6.87975 3.95819 6.87642 3.93241C6.87468 3.9189 6.8727 3.90355 6.86971 3.88563C6.88893 3.89602 6.90559 3.90456 6.92045 3.91217C6.94682 3.92568 6.96753 3.93629 6.98674 3.94917C7.01136 3.96579 7.03506 3.9842 7.05874 4.00258C7.10185 4.03606 7.14488 4.06947 7.19318 4.09188C7.34615 4.16237 7.44529 4.28285 7.53002 4.41913C7.57111 4.48512 7.6102 4.55251 7.64928 4.61989C7.68567 4.68263 7.72207 4.74537 7.76007 4.80698C7.89498 5.02607 7.97138 5.03493 8.11757 4.82434C8.27557 4.59674 8.41795 4.35768 8.55772 4.11827C8.58081 4.07886 8.57664 3.9931 8.54834 3.96063C8.50641 3.9122 8.45226 3.87434 8.396 3.83499C8.37259 3.81862 8.34882 3.80199 8.3254 3.78424C8.31543 3.80097 8.3068 3.81471 8.29931 3.82664C8.28581 3.84815 8.276 3.86379 8.26863 3.88042C8.24033 3.94518 8.2023 3.95837 8.14049 3.91844C8.11282 3.90061 8.08327 3.88567 8.05373 3.87075C8.02118 3.85431 7.98865 3.83788 7.9587 3.81758C7.89464 3.77435 7.82918 3.72799 7.77935 3.67018C7.76556 3.65085 7.75604 3.62882 7.7514 3.60554C7.74676 3.58225 7.74711 3.55825 7.75243 3.53511C7.75938 3.51046 7.82136 3.49293 7.86078 3.48772C7.90681 3.48241 7.95343 3.4863 7.99794 3.49918C8.01123 3.50301 8.02454 3.50683 8.03786 3.51065C8.14687 3.54191 8.25646 3.57333 8.36013 3.61758C8.46135 3.66133 8.54417 3.65803 8.63793 3.60022C8.74246 3.53564 8.82892 3.58182 8.85045 3.70334C8.86258 3.78033 8.90271 3.85012 8.96314 3.89935C9.02205 3.95408 9.06884 4.02056 9.10048 4.09448C9.15016 4.20312 9.19634 4.31318 9.24252 4.42327C9.28462 4.5236 9.32672 4.62396 9.37151 4.7233ZM6.80383 2.45319C6.83055 2.47087 6.85728 2.48855 6.88476 2.50481C6.91098 2.52044 6.93268 2.59509 6.91671 2.61592C6.89027 2.65416 6.84043 2.67903 6.79539 2.7015C6.79339 2.70249 6.79141 2.70348 6.78944 2.70447C6.76748 2.71516 6.74326 2.72299 6.7192 2.73078C6.67725 2.74434 6.63579 2.75775 6.60765 2.78589C6.56338 2.83016 6.53733 2.90516 6.52865 2.97009C6.51598 3.06505 6.59793 3.13137 6.69586 3.11401C6.74517 3.10481 6.75524 3.12477 6.76722 3.16245C6.81514 3.31297 6.76739 3.44717 6.69586 3.57564C6.68665 3.59196 6.64724 3.60498 6.62727 3.59942C6.59413 3.59034 6.56193 3.57765 6.52971 3.56495C6.50033 3.55337 6.47094 3.54179 6.4408 3.53293C6.42997 3.52974 6.41914 3.52652 6.4083 3.52329C6.32593 3.49878 6.24302 3.4741 6.15848 3.46244C6.07392 3.45081 6.04614 3.52494 6.03104 3.5897C6.02271 3.6256 6.02204 3.66318 6.02137 3.70083C6.02101 3.72126 6.02065 3.74171 6.01906 3.76192C6.01229 3.85289 5.98312 3.87928 5.89752 3.85064C5.86452 3.83961 5.83123 3.82929 5.79795 3.81897C5.65034 3.7732 5.50271 3.72742 5.37959 3.6206C5.34226 3.58831 5.265 3.58658 5.20961 3.59439C5.13061 3.60619 5.08251 3.5805 5.07071 3.50758C5.06037 3.44428 5.05638 3.38 5.05183 3.3068C5.04973 3.273 5.04751 3.2373 5.04449 3.1989C5.02931 3.20508 5.01329 3.21 4.99746 3.21487C4.96388 3.22519 4.93118 3.23525 4.90923 3.25637C4.81096 3.35099 4.70123 3.39665 4.56441 3.38154C4.50953 3.3777 4.45443 3.37828 4.39964 3.38328C4.22723 3.39231 4.16316 3.32807 4.17635 3.14457C4.29199 3.15364 4.34088 3.07983 4.39222 3.00235C4.40671 2.98047 4.4214 2.9583 4.43784 2.93762C4.44317 2.93092 4.44851 2.92421 4.45385 2.91748C4.55583 2.7891 4.65934 2.65878 4.81773 2.58537C4.89066 2.55169 4.94118 2.56558 4.97035 2.62408C5.01931 2.72183 5.09936 2.74943 5.19711 2.76957C5.33393 2.79752 5.34243 2.81419 5.34243 2.96748C5.34278 3.02929 5.34643 3.08519 5.41831 3.10394C5.58673 3.14786 5.6053 3.12338 5.60652 2.97738C5.6066 2.96807 5.60507 2.95737 5.6035 2.94638C5.59817 2.90904 5.59236 2.86831 5.6475 2.86696C5.71243 2.8654 5.73101 2.92217 5.73431 2.9845C5.73587 3.02842 5.7449 3.0805 5.7706 3.11279C5.80775 3.15967 5.90533 3.11661 5.92686 3.04717C5.93317 3.02193 5.93558 2.99588 5.93398 2.96991C5.93277 2.8588 5.97409 2.81922 6.07826 2.84717C6.13383 2.8621 6.15692 2.84127 6.16508 2.79596C6.17612 2.7365 6.18395 2.67645 6.19177 2.61648C6.19441 2.59625 6.19705 2.57604 6.1998 2.55586C6.22342 2.38329 6.28644 2.34718 6.45486 2.3312C6.59859 2.31743 6.70108 2.38522 6.80383 2.45319Z" fill="#828282"/>
</svg>
