<svg width="19" height="18" viewBox="0 0 19 18" fill="none" xmlns="http://www.w3.org/2000/svg">
<path d="M16.4561 3.0495C16.3218 2.0984 15.8655 1.34188 15.1005 0.803591C14.4687 0.358046 13.7117 0.10254 12.7847 0.0225236C12.2917 -0.0202123 11.7772 -0.00202684 11.2538 0.0761709C10.2543 0.227111 9.31563 0.561724 8.46379 1.07183C7.91439 1.40099 7.46163 1.77379 7.07955 2.21206C7.05361 2.24207 6.99902 2.33572 6.99902 2.33572L7.11445 2.43938L7.16724 2.48211L7.20393 2.44574C7.21198 2.44029 7.22093 2.43483 7.22809 2.42847C7.78465 1.96565 8.42353 1.60648 9.18231 1.33006C10.3974 0.887245 11.5267 0.756309 12.6344 0.929071C13.1999 1.01727 13.6813 1.19185 14.1081 1.46373C14.7425 1.86744 15.1219 2.3921 15.2687 3.06496C15.3716 3.53869 15.3823 4.02243 15.3027 4.54526C15.2043 5.18721 15.0002 5.74278 14.6781 6.24379C14.6298 6.31835 14.5779 6.39018 14.5224 6.46656C14.4965 6.50202 14.4705 6.53839 14.4446 6.57476L14.4025 6.63478L14.5582 6.81027L14.6244 6.74298C14.679 6.68842 14.7327 6.63478 14.7864 6.58204C14.9036 6.46565 15.0146 6.35563 15.1237 6.23924C15.6024 5.72186 15.9335 5.25268 16.1653 4.76258C16.4409 4.17609 16.5357 3.61689 16.4561 3.0495Z" fill="#8A2529"/>
<path fill-rule="evenodd" clip-rule="evenodd" d="M13.8567 7.14406L13.9373 7.08496L14.1055 7.27318L14.0348 7.3341C13.9713 7.38839 13.9087 7.44347 13.8468 7.49787L13.8335 7.50959C13.6921 7.63416 13.5453 7.76327 13.395 7.8833C12.3723 8.70347 11.1652 9.29722 9.80959 9.65093C9.23692 9.80005 8.65173 9.90371 8.07101 9.95736C7.76589 9.98555 7.47597 10.0001 7.19501 10.0001C7.00889 10.0001 6.82815 9.99464 6.64919 9.98191C5.79198 9.9228 5.0672 9.74641 4.43279 9.44453C3.77333 9.12992 3.28657 8.71892 2.94655 8.18791C2.67811 7.76782 2.5242 7.29409 2.4902 6.78126C2.44546 6.11476 2.61726 5.4619 3.01187 4.78449C3.3832 4.14981 3.90397 3.57515 4.60459 3.02595C5.26584 2.50766 6.20716 1.9721 6.89257 1.72296L6.96863 1.69568L7.06169 1.89299L6.99279 1.93573C6.91852 1.98119 6.84425 2.02666 6.77088 2.07121C6.60982 2.16941 6.4577 2.26307 6.30559 2.36309C5.50296 2.8941 4.88556 3.4724 4.41937 4.13072C4.04356 4.66083 3.8136 5.18184 3.71517 5.72468C3.58364 6.4521 3.67759 7.06222 4.0024 7.59051C4.25383 7.99969 4.62249 8.32793 5.12804 8.59435C5.57723 8.83076 6.09352 8.99443 6.70645 9.09355C7.21112 9.17538 7.73994 9.20084 8.32513 9.17174C9.19576 9.12901 10.0914 8.9617 10.988 8.67528C11.992 8.3543 12.9458 7.84784 13.8227 7.16952C13.8335 7.16133 13.8442 7.15315 13.8567 7.14406ZM7.25316 3.33768H7.87683C7.88442 3.33768 7.89233 3.33834 7.90097 3.33907C7.9066 3.33955 7.91253 3.34005 7.91889 3.34041L8.03432 3.35404L7.98152 3.62683C7.95021 3.78413 7.91978 3.93871 7.89204 4.09419C7.88399 4.14057 7.85446 4.21513 7.73993 4.21058H7.73098H6.79861H6.47559L6.44405 4.21047C6.41251 4.2103 6.38097 4.21013 6.34942 4.21149C6.31184 4.40517 6.27695 4.59793 6.24205 4.79161H7.69698L7.53502 5.66088H7.06615C6.73866 5.66179 6.41117 5.66179 6.08367 5.65997H6.07562V5.6627C6.04788 5.82455 6.01835 5.98549 5.98793 6.14734L5.95303 6.33647H7.58245L7.42228 7.20301H4.80054L4.84618 6.94841C4.85503 6.90099 4.86351 6.85395 4.87197 6.8071C4.88231 6.74974 4.89261 6.69268 4.90344 6.63562L5.35889 4.18603C5.40363 3.9478 5.44748 3.70957 5.49132 3.47043C5.5119 3.3595 5.59064 3.33495 5.6488 3.33677C6.18382 3.33768 6.71794 3.33768 7.25295 3.33768H7.25316ZM12.9771 5.04431C12.8939 4.99066 12.8062 4.94611 12.7212 4.90337L12.7046 4.89492L12.7046 4.89491C12.6548 4.86967 12.6058 4.8448 12.5575 4.81699L12.5574 4.81694C12.5279 4.80059 12.4984 4.78424 12.468 4.76789C12.3615 4.70969 12.2604 4.65423 12.1718 4.58421C12.1101 4.53511 12.0779 4.4751 12.0815 4.41418C12.085 4.35053 12.128 4.28688 12.2005 4.24142C12.2425 4.21505 12.2899 4.18777 12.3293 4.18413L12.3955 4.17686L12.401 4.17627C12.5273 4.16281 12.6576 4.14891 12.7767 4.16504C12.8996 4.18121 13.0207 4.21602 13.1487 4.25281L13.1534 4.25415L13.1955 4.26606C13.24 4.27871 13.285 4.2915 13.3306 4.30325L13.4066 4.32325L13.7225 3.51127L13.6402 3.47763C13.627 3.47227 13.6141 3.4666 13.6014 3.46098L13.5749 3.44944C13.5283 3.42943 13.4836 3.41034 13.438 3.39397C13.0961 3.27668 12.723 3.24303 12.3275 3.29486C11.9624 3.34305 11.6555 3.47945 11.4148 3.7004C11.1715 3.92408 11.0319 4.25415 11.0426 4.58331C11.0524 4.88246 11.1885 5.15251 11.4265 5.34437C11.6016 5.48528 11.7997 5.58222 11.9935 5.67709L11.9973 5.67898C12.1477 5.75172 12.2542 5.81628 12.3427 5.8863C12.4072 5.93722 12.4412 6.00723 12.4385 6.08361C12.4367 6.16181 12.3955 6.23455 12.3257 6.28365C12.2685 6.32366 12.2005 6.35457 12.1342 6.37003C11.89 6.42732 11.6305 6.39913 11.2931 6.2791C11.233 6.25818 11.1742 6.23085 11.1125 6.20215L11.0882 6.1909L11.0467 6.17171L11.0467 6.1717C11.0264 6.16227 11.006 6.15279 10.9853 6.14362L10.9039 6.10725L10.5451 6.92287L10.6185 6.96288C10.6399 6.9747 10.6614 6.98743 10.6811 6.99925L10.6912 7.00508C10.7337 7.02972 10.778 7.05534 10.8261 7.07472C11.1607 7.20838 11.4927 7.27567 11.8184 7.27567C12.0859 7.27567 12.3499 7.23021 12.6076 7.13928C12.9727 7.01107 13.2277 6.79012 13.3646 6.48187C13.6241 5.90448 13.4791 5.36619 12.9771 5.04431ZM10.7079 4.14235H10.7071C10.6623 4.21509 10.5898 4.216 10.5648 4.21418C10.469 4.21327 10.2865 4.21327 10.1908 4.21327C10.1314 4.21327 10.1064 4.21327 10.0813 4.21305L10.0127 4.2121L9.97064 4.21146L9.97062 4.21155L9.97061 4.21164L9.97059 4.21172C9.85876 4.84722 9.74693 5.48271 9.6342 6.11821L9.53846 6.66014L9.52401 6.74175L9.524 6.74181L9.524 6.74185C9.50393 6.85552 9.48388 6.96907 9.4615 7.08204C9.44987 7.13932 9.39081 7.20297 9.32818 7.20388C9.21815 7.2057 9.10812 7.2057 8.99809 7.2057H8.998C8.95023 7.2057 8.90246 7.20547 8.85469 7.20525L8.85439 7.20525C8.80652 7.20502 8.75865 7.20479 8.71077 7.20479H8.61951C8.59893 7.20479 8.58282 7.19843 8.57387 7.19479L8.50229 7.17024L8.50855 7.08931L9.01769 4.21509H8.16048L8.19001 4.03688C8.19716 3.98871 8.20521 3.94328 8.21326 3.89784L8.21326 3.89783L8.21326 3.8978L8.21327 3.89776C8.22173 3.84929 8.23086 3.8015 8.24007 3.75322L8.24009 3.75313L8.24459 3.72954C8.26069 3.64589 8.2768 3.56132 8.29112 3.47767C8.30812 3.38311 8.36091 3.33491 8.4495 3.33491C9.21166 3.33582 9.8352 3.33582 10.5964 3.33582H10.597L10.9227 3.33491C10.9276 3.33491 10.9319 3.33467 10.9358 3.33445C10.9425 3.33407 10.948 3.33376 10.9531 3.33491H10.9648H11.4408L11.3934 3.35401C11.2699 3.40857 10.937 3.59679 10.7294 4.09234C10.7241 4.10962 10.7169 4.12507 10.7097 4.1378C10.7097 4.13914 10.7093 4.13998 10.7086 4.14105L10.7079 4.14235ZM15.1228 7.01111C14.9537 7.01111 14.798 7.07567 14.6835 7.19205C14.5699 7.30662 14.5081 7.46211 14.5081 7.62942C14.5081 7.97767 14.7766 8.25136 15.1184 8.25227H15.1202C15.2893 8.25227 15.4459 8.18771 15.5604 8.07132C15.6749 7.95585 15.7376 7.79854 15.7376 7.62851C15.7385 7.28298 15.4682 7.01202 15.1228 7.01111ZM15.4664 7.9904C15.3725 8.08496 15.2508 8.13679 15.1228 8.13679H15.1193C14.849 8.13497 14.6307 7.90584 14.6307 7.62669C14.6316 7.35209 14.8517 7.1284 15.1211 7.1275H15.1228C15.2508 7.1275 15.3725 7.17932 15.4664 7.2748C15.5622 7.37209 15.615 7.49939 15.615 7.63396C15.615 7.76763 15.5622 7.89401 15.4664 7.9904ZM15.229 7.6442V7.64692C15.2665 7.66238 15.2871 7.69784 15.2987 7.74694C15.3021 7.75961 15.3054 7.77266 15.3088 7.78559C15.3215 7.83485 15.3338 7.88223 15.3416 7.89879H15.2192C15.2111 7.88334 15.1986 7.83969 15.1825 7.77331C15.1682 7.70603 15.1459 7.68784 15.0967 7.68693H15.061V7.89879H14.9421V7.36687C14.9805 7.3605 15.0386 7.35596 15.1021 7.35596C15.1807 7.35596 15.2361 7.36869 15.2737 7.39869C15.3059 7.42415 15.3228 7.46143 15.3228 7.51144C15.3228 7.58055 15.2746 7.62783 15.229 7.6442ZM15.0619 7.59964H15.1092C15.1691 7.59964 15.204 7.56964 15.2049 7.52235C15.2049 7.47234 15.1718 7.44779 15.1164 7.44688C15.0869 7.44688 15.0708 7.4487 15.0619 7.45052V7.59964Z" fill="#004B8D"/>
<path fill-rule="evenodd" clip-rule="evenodd" d="M4.41079 12H0.695663L0.5 13.2052H1.79503L1.044 17.9995H2.15671L2.90824 13.2046H4.21562L4.41079 12ZM17.9988 12.236C18.0098 12.2418 18.0209 12.2476 18.0321 12.2532L18.1615 12.3169L17.8389 13.3607L17.7223 13.3451C17.7154 13.3451 17.6877 13.3439 17.6571 13.326C17.5049 13.2387 17.3403 13.2051 17.1995 13.1838C17.0315 13.1583 16.8823 13.1514 16.744 13.1629C16.3408 13.1965 16.0107 13.3578 15.734 13.6568C15.4746 13.9373 15.2997 14.2889 15.2009 14.7325C15.1475 14.9725 15.1233 15.2212 15.1302 15.4716C15.1391 15.8024 15.196 16.0591 15.3091 16.2789C15.4484 16.549 15.657 16.7184 15.9465 16.7971C16.1145 16.8428 16.2963 16.8532 16.5355 16.8306C16.7588 16.8098 16.9525 16.7618 17.1279 16.6849C17.1407 16.6791 17.1546 16.6727 17.1694 16.6658L17.3739 16.5704L17.4476 17.3014L17.4476 17.3016C17.454 17.3686 17.4604 17.4356 17.4683 17.5026C17.4822 17.6177 17.4372 17.7097 17.3463 17.7548C17.158 17.8473 16.95 17.9109 16.6906 17.9537C16.5053 17.9844 16.3176 18 16.1313 18C16.1041 18 16.0769 17.9994 16.0498 17.9988C15.5898 17.9878 15.2063 17.8681 14.8768 17.6339C14.4514 17.3309 14.1682 16.874 14.0358 16.276C13.9666 15.9643 13.9449 15.6225 13.9681 15.2316C14.0017 14.6695 14.1292 14.1582 14.3466 13.7123C14.7542 12.8761 15.3768 12.333 16.196 12.0988C16.4767 12.019 16.7707 11.9884 17.0948 12.0051C17.3843 12.0202 17.6338 12.0728 17.8582 12.1671C17.8969 12.183 17.9329 12.2018 17.9679 12.22L17.9679 12.22L17.9807 12.2266L17.9988 12.236ZM8.54343 14.3485C8.537 14.0189 8.49303 13.7233 8.40755 13.4446C8.20694 12.7882 7.83044 12.3487 7.28792 12.1376C6.92328 11.9959 6.52652 11.9676 6.109 12.0532C5.44395 12.1902 4.90736 12.5817 4.51504 13.2173C4.11038 13.8737 3.89791 14.6579 3.88309 15.5497V15.5508C3.87963 15.8805 3.92064 16.1933 4.00513 16.4796C4.22451 17.2245 4.65388 17.7051 5.28139 17.9092C5.46668 17.9694 5.66135 17.9994 5.87035 17.9994C5.97708 17.9994 6.08726 17.9919 6.20189 17.9763C6.50823 17.9352 6.79679 17.8329 7.05915 17.6738C7.56363 17.3673 7.94952 16.8862 8.20744 16.2431C8.44263 15.6555 8.55578 15.0182 8.54343 14.3485ZM7.02012 16.1089C6.8714 16.4235 6.65646 16.6479 6.38125 16.7751C6.2513 16.8353 6.12037 16.863 6.05762 16.8607H6.05614C5.78043 16.859 5.60601 16.8098 5.45284 16.6907C5.28337 16.5588 5.16824 16.3605 5.10055 16.084C5.04867 15.873 5.02989 15.6474 5.04175 15.3958C5.06794 14.8476 5.18504 14.3699 5.39898 13.9344C5.56846 13.5892 5.78389 13.3613 6.05762 13.237C6.19794 13.1734 6.33678 13.1416 6.47315 13.1416C6.62633 13.1416 6.77653 13.182 6.92229 13.2624C7.08979 13.355 7.21084 13.5198 7.29188 13.7667C7.34721 13.9356 7.37735 14.116 7.38427 14.3184C7.40552 14.9511 7.28298 15.5537 7.02012 16.1089ZM9.88194 16.5766L9.94195 16.194L9.94215 16.1927L9.94233 16.1916C9.97917 15.957 10.016 15.7224 10.0524 15.4876C10.2934 15.4883 10.5346 15.4884 10.7757 15.4885H10.7758H10.7758H10.7758H10.7758H10.7758C10.9366 15.4885 11.0973 15.4886 11.258 15.4888H11.7368L11.9255 14.3125H10.2347L10.2639 14.1309L10.3025 13.8898L10.3025 13.8895C10.3402 13.6545 10.3779 13.4191 10.4151 13.183C10.8479 13.1842 11.2802 13.1842 11.7131 13.1842H12.2027L12.3905 12.0062H9.48913L8.54392 17.9999H11.549L11.7368 16.8166H9.84439L9.88194 16.5766ZM13.9276 12.2106L13.9276 12.2106C13.9241 12.2261 13.9206 12.2421 13.9187 12.2543L13.7759 13.1333C13.7255 13.4543 13.6746 13.7759 13.6237 14.0974L13.4637 15.1152L13.2062 16.7507C13.1499 17.107 13.0936 17.4638 13.0377 17.82C13.02 17.9311 12.9523 17.9999 12.8599 17.9999H12.8594C12.6736 17.9993 12.4878 17.9987 12.302 17.9987H12.0965C12.0851 17.9985 12.0753 17.999 12.0674 17.9994C12.0571 18 12.0498 18.0004 12.0456 17.9987H11.9072L11.9374 17.7819L12.8495 12.0004H13.9592L13.9365 12.1595C13.9371 12.1679 13.9324 12.1888 13.9276 12.2106ZM18.1606 16.9885C18.0672 16.9885 17.9812 17.0243 17.9179 17.0888C17.8552 17.1522 17.8211 17.2383 17.8211 17.331C17.8211 17.5239 17.9693 17.6755 18.1581 17.676H18.1591C18.2525 17.676 18.3389 17.6403 18.4022 17.5758C18.4654 17.5118 18.5 17.4247 18.5 17.3305C18.5005 17.1391 18.3513 16.989 18.1606 16.9885ZM18.3503 17.531C18.2984 17.5834 18.2312 17.6121 18.1606 17.6121H18.1586C18.0094 17.6111 17.8888 17.4841 17.8888 17.3295C17.8893 17.1774 18.0108 17.0535 18.1596 17.053H18.1606C18.2312 17.053 18.2984 17.0817 18.3503 17.1346C18.4032 17.1885 18.4323 17.259 18.4323 17.3335C18.4323 17.4071 18.4032 17.4776 18.3503 17.531ZM18.2196 17.3392V17.3407C18.2398 17.3487 18.2511 17.3689 18.258 17.3961C18.2599 17.4031 18.2617 17.4103 18.2636 17.4175C18.2706 17.4448 18.2774 17.471 18.2817 17.4802H18.2141C18.2097 17.4716 18.2028 17.4475 18.1939 17.4107C18.186 17.3734 18.1737 17.3633 18.1466 17.3628H18.1268V17.4802H18.0612V17.1855C18.0824 17.182 18.1145 17.1795 18.1495 17.1795C18.1929 17.1795 18.2235 17.1866 18.2442 17.2032C18.262 17.2173 18.2713 17.2379 18.2713 17.2656C18.2713 17.3039 18.2447 17.3301 18.2196 17.3392ZM18.1268 17.3145H18.153C18.186 17.3145 18.2053 17.2974 18.2057 17.2717C18.2057 17.244 18.1875 17.2304 18.1569 17.2299C18.1406 17.2299 18.1318 17.2309 18.1268 17.2319V17.3145Z" fill="#004B8D"/>
</svg>
