<svg width="51" height="12" viewBox="0 0 51 12" fill="none" xmlns="http://www.w3.org/2000/svg">
<path d="M31.765 5.06615C31.7526 4.44421 31.6676 3.88664 31.5025 3.36072C31.1149 2.12228 30.3874 1.29302 29.3391 0.894762C28.6345 0.627436 27.8679 0.57397 27.0611 0.735457C25.7761 0.994055 24.7393 1.73275 23.9812 2.9319C23.1993 4.17034 22.7888 5.64991 22.7602 7.33243V7.33461C22.7535 7.95656 22.8327 8.54686 22.996 9.08697C23.4199 10.4923 24.2495 11.3991 25.462 11.7842C25.82 11.8977 26.1962 11.9545 26.6 11.9545C26.8062 11.9545 27.0191 11.9403 27.2406 11.9108C27.8326 11.8333 28.3901 11.6402 28.8971 11.3402C29.8718 10.7619 30.6175 9.85403 31.1158 8.6407C31.5703 7.53211 31.7889 6.32968 31.765 5.06615ZM28.8216 8.38755C28.5343 8.98113 28.119 9.40449 27.5872 9.64454C27.3361 9.75801 27.0831 9.81039 26.9619 9.80602H26.959C26.4263 9.80275 26.0892 9.71 25.7933 9.48523C25.4658 9.23645 25.2434 8.8622 25.1126 8.34063C25.0123 7.94237 24.9761 7.51683 24.999 7.04219C25.0496 6.0078 25.2758 5.10652 25.6892 4.2849C26.0167 3.6335 26.4329 3.20359 26.9619 2.969C27.233 2.84898 27.5013 2.78896 27.7648 2.78896C28.0607 2.78896 28.351 2.86534 28.6326 3.01701C28.9563 3.19159 29.1902 3.50256 29.3467 3.96848C29.4537 4.28709 29.5119 4.62752 29.5253 5.00941C29.5663 6.20311 29.3296 7.34007 28.8216 8.38755Z" fill="#004B8D"/>
<path d="M34.3514 9.27017C34.4611 8.58494 34.5719 7.90081 34.6807 7.21558C35.4569 7.21776 36.234 7.21667 37.0102 7.21776H37.9354L38.3001 4.9984H35.033L35.0893 4.65578C35.1867 4.06112 35.2851 3.46536 35.3815 2.86742C36.2178 2.8696 37.0532 2.8696 37.8895 2.8696H38.8356L39.1984 0.646973H33.5924L31.766 11.9554H37.5726L37.9354 9.72299H34.2788L34.3514 9.27017Z" fill="#004B8D"/>
<path d="M50.0994 1.11282C50.066 1.09646 50.0326 1.079 50.0001 1.06263C49.9247 1.02444 49.8473 0.984069 49.7633 0.950244C49.3299 0.77239 48.8478 0.673097 48.2883 0.644728C47.662 0.613085 47.0939 0.670915 46.5517 0.821491C44.9687 1.2634 43.7658 2.28797 42.9782 3.86574C42.5581 4.70701 42.3118 5.67156 42.2469 6.73214C42.202 7.46975 42.244 8.11461 42.3776 8.70272C42.6335 9.83095 43.1806 10.6929 44.0026 11.2647C44.6394 11.7066 45.3802 11.9325 46.2691 11.9532C46.3216 11.9543 46.3741 11.9554 46.4266 11.9554C46.7865 11.9554 47.1493 11.9259 47.5073 11.8681C48.0086 11.7873 48.4105 11.6673 48.7742 11.4927C48.9499 11.4076 49.0368 11.2341 49.0101 11.017C48.9948 10.8904 48.9824 10.7639 48.97 10.6373L48.8277 9.25811L48.4325 9.43815C48.4038 9.45124 48.3771 9.46324 48.3523 9.47415C48.0133 9.61927 47.6391 9.70984 47.2076 9.74912C46.7455 9.79167 46.3941 9.77203 46.0695 9.68583C45.5101 9.53744 45.1072 9.21774 44.8379 8.70818C44.6193 8.29355 44.5095 7.80909 44.4923 7.18496C44.479 6.7125 44.5258 6.24332 44.6289 5.7905C44.8198 4.9536 45.1578 4.29019 45.659 3.761C46.1936 3.19688 46.8314 2.89246 47.6104 2.82917C47.8778 2.80735 48.1661 2.82044 48.4907 2.86845C48.7628 2.90882 49.0807 2.97211 49.3748 3.13687C49.4339 3.17069 49.4874 3.17288 49.5008 3.17288L49.7261 3.20234L50.3495 1.23285L50.0994 1.11282Z" fill="#004B8D"/>
<path d="M23.7798 0.63501H16.6013L16.2232 2.90893H18.7255L17.2744 11.9544H19.4244L20.8765 2.90783H23.4027L23.7798 0.63501Z" fill="#004B8D"/>
<path d="M42.1514 1.11511C42.16 1.05947 42.1877 0.963447 42.1857 0.936169L42.2297 0.636108H40.0854L38.323 11.5441L38.2647 11.9533H38.5321C38.5464 11.9588 38.5798 11.9522 38.6304 11.9533H39.0276C39.3865 11.9533 39.7455 11.9544 40.1045 11.9555H40.1054C40.284 11.9555 40.4148 11.8256 40.4491 11.6161C40.557 10.944 40.6658 10.2708 40.7747 9.59865L41.2721 6.51294C41.3752 5.87244 41.4783 5.23304 41.5814 4.59255C41.6797 3.98588 41.7781 3.37921 41.8755 2.77363L42.1514 1.11511Z" fill="#004B8D"/>
<path d="M12.2211 8.50204L12.1351 8.57296C12.1218 8.58388 12.1103 8.5937 12.0989 8.60352C11.1632 9.4175 10.1455 10.0253 9.07432 10.4104C8.11769 10.7541 7.16202 10.9549 6.23309 11.0062C5.6087 11.0411 5.04447 11.0105 4.50601 10.9123C3.85203 10.7934 3.30116 10.597 2.82189 10.3133C2.28248 9.99361 1.88913 9.59972 1.62086 9.10871C1.2743 8.47476 1.17405 7.74261 1.31439 6.86971C1.41941 6.2183 1.66477 5.59309 2.06576 4.95696C2.56316 4.16698 3.22192 3.47302 4.07829 2.8358C4.2406 2.71578 4.4029 2.60339 4.57475 2.48555C4.65303 2.43208 4.73227 2.37753 4.81152 2.32297L4.88503 2.27169L4.78574 2.03491L4.70459 2.06765C3.97328 2.36662 2.96892 3.00929 2.26338 3.63124C1.51584 4.29028 0.960195 4.97987 0.563989 5.74148C0.142959 6.55437 -0.040346 7.3378 0.00738972 8.1376C0.0436689 8.753 0.20788 9.32148 0.494294 9.82558C0.857086 10.4628 1.37645 10.956 2.08008 11.3335C2.75697 11.6958 3.53029 11.9075 4.44491 11.9784C4.63585 11.9937 4.8287 12.0002 5.02728 12.0002C5.32706 12.0002 5.63639 11.9827 5.96195 11.9489C6.58156 11.8845 7.20594 11.7602 7.81696 11.5812C9.26335 11.1568 10.5513 10.4443 11.6425 9.46005C11.8029 9.31602 11.9595 9.16108 12.1103 9.0116C12.181 8.94177 12.2526 8.87084 12.3251 8.80101L12.4005 8.7279L12.2211 8.50204Z" fill="#004B8D"/>
<path d="M14.9086 3.65952C14.7654 2.5182 14.2785 1.61038 13.4622 0.964431C12.7882 0.429777 11.9805 0.12317 10.9914 0.0271504C10.4653 -0.0241327 9.91638 -0.00231014 9.35787 0.0915271C8.29145 0.272655 7.28996 0.674191 6.38107 1.28631C5.79487 1.6813 5.31179 2.12867 4.90412 2.65459C4.87644 2.6906 4.8182 2.80299 4.8182 2.80299L4.94136 2.92737L4.99769 2.97866L5.03683 2.93501C5.04542 2.92847 5.05497 2.92192 5.06261 2.91428C5.65644 2.3589 6.33811 1.9279 7.1477 1.5962C8.44421 1.06482 9.64906 0.907692 10.831 1.11501C11.4344 1.22085 11.948 1.43034 12.4034 1.75659C13.0803 2.24105 13.4851 2.87064 13.6417 3.67807C13.7515 4.24655 13.7629 4.82703 13.678 5.45443C13.5729 6.22477 13.3553 6.89145 13.0116 7.49266C12.96 7.58214 12.9046 7.66834 12.8454 7.75999C12.8178 7.80255 12.7901 7.84619 12.7624 7.88983L12.7175 7.96185L12.8836 8.17244L12.9543 8.09169C13.0125 8.02623 13.0698 7.96185 13.1271 7.89856C13.2522 7.7589 13.3705 7.62687 13.487 7.48721C13.9978 6.86635 14.351 6.30333 14.5983 5.71521C14.8924 5.01143 14.9936 4.34039 14.9086 3.65952Z" fill="#8A2529"/>
<path d="M5.75478 4.00547H5.08935C4.51843 4.00547 3.94846 4.00547 3.37754 4.00438C3.31549 4.0022 3.23147 4.03166 3.20951 4.16478C3.16273 4.45175 3.11595 4.73762 3.06822 5.0235L2.58227 7.963C2.56126 8.08739 2.54217 8.21178 2.52116 8.33835L2.47247 8.64387H5.26979L5.44068 7.60402H3.70215L3.73938 7.37707C3.77184 7.18284 3.80335 6.98971 3.83294 6.79549C3.83294 6.7944 3.83294 6.79331 3.83294 6.79222C3.83581 6.79222 3.83867 6.79222 3.84153 6.79222C4.19096 6.7944 4.54039 6.7944 4.88981 6.79331H5.39008L5.56289 5.75019H4.01052C4.04775 5.51778 4.08499 5.28646 4.12508 5.05405C4.16996 5.05187 4.21483 5.05296 4.2597 5.05296H4.60435C4.93564 5.05296 5.26788 5.05296 5.59916 5.05296H5.60871C5.73092 5.05841 5.76242 4.96894 5.77101 4.91329C5.80061 4.72671 5.83307 4.54122 5.86649 4.35245L5.92281 4.02511L5.79966 4.00875C5.78247 4.00766 5.76815 4.00547 5.75478 4.00547Z" fill="#004B8D"/>
<path d="M11.1967 6.05346C11.1079 5.98908 11.0143 5.93562 10.9236 5.88434C10.8644 5.85051 10.8062 5.81778 10.7489 5.78068C10.7174 5.76104 10.6859 5.7414 10.6534 5.72176C10.5398 5.65193 10.4319 5.58537 10.3374 5.50135C10.2715 5.44243 10.2372 5.37041 10.241 5.29731C10.2448 5.22093 10.2906 5.14455 10.368 5.08999C10.4128 5.05835 10.4634 5.02562 10.5054 5.02125L10.5761 5.01252C10.7126 4.99616 10.8539 4.9787 10.9828 4.99834C11.1155 5.01798 11.2463 5.06053 11.3847 5.10527C11.4468 5.12491 11.5098 5.14564 11.5738 5.16419L11.6549 5.1882L11.9919 4.21382L11.9041 4.17344C11.8802 4.16253 11.8573 4.15053 11.8344 4.13962C11.7848 4.11561 11.737 4.0927 11.6883 4.07306C11.3236 3.93231 10.9255 3.89193 10.5035 3.95413C10.114 4.01196 9.78655 4.17563 9.52973 4.44077C9.27005 4.70919 9.12111 5.10527 9.13257 5.50026C9.14307 5.85924 9.28819 6.18331 9.54214 6.41353C9.73022 6.58375 9.94312 6.7005 10.1512 6.81507C10.3116 6.90236 10.4253 6.97983 10.5198 7.06385C10.5885 7.12495 10.6248 7.20897 10.6219 7.30062C10.62 7.39446 10.5761 7.48175 10.5016 7.54067C10.4405 7.58868 10.368 7.62578 10.2973 7.64433C10.0367 7.71307 9.75982 7.67925 9.39989 7.53522C9.32733 7.50685 9.25668 7.46866 9.18126 7.42938C9.14498 7.41083 9.1087 7.39119 9.07147 7.37264L8.98459 7.32899L8.60175 8.30774L8.68003 8.35575C8.70295 8.36993 8.72586 8.38521 8.74686 8.39939C8.79555 8.43103 8.84615 8.46486 8.90153 8.48995C9.25859 8.65035 9.61279 8.73109 9.96031 8.73109C10.2458 8.73109 10.5274 8.67654 10.8024 8.56743C11.1919 8.41358 11.464 8.14843 11.6101 7.77854C11.8869 7.08567 11.7323 6.43972 11.1967 6.05346Z" fill="#004B8D"/>
<path d="M8.77455 4.97111H8.77551C8.77646 4.96893 8.77742 4.96784 8.77742 4.96566C8.78506 4.95038 8.79269 4.93183 8.79842 4.9111C9.01992 4.31644 9.37507 4.09057 9.50682 4.0251L9.55742 4.00219H9.04951H9.0371C9.02851 4.00001 9.01896 4.00219 9.00464 4.00219L8.65712 4.00328C7.84466 4.00328 7.17922 4.00328 6.36581 4.00219C6.27129 4.00219 6.21496 4.06002 6.19682 4.1735C6.18155 4.27388 6.16436 4.37536 6.14718 4.47574C6.13572 4.54339 6.12426 4.60995 6.11376 4.6776C6.10517 4.73216 6.09658 4.78671 6.08894 4.84454L6.05743 5.0584H6.97205L6.42882 8.50747L6.42213 8.60458L6.49851 8.63404C6.50806 8.6384 6.52524 8.64604 6.5472 8.64604H6.64458C6.74674 8.64604 6.84889 8.64713 6.95105 8.64713C7.06848 8.64713 7.18591 8.64713 7.30334 8.64495C7.37017 8.64386 7.43318 8.56748 7.44559 8.49874C7.47519 8.3307 7.50096 8.16158 7.5277 7.99245L7.62985 7.34214C7.75014 6.57944 7.86948 5.81674 7.98882 5.05404C8.11675 5.05622 8.09671 5.05622 8.22368 5.05622C8.32584 5.05622 8.5206 5.05622 8.62275 5.05731C8.64949 5.0595 8.72682 5.0584 8.77455 4.97111Z" fill="#004B8D"/>
<path d="M13.4861 8.41357C13.3056 8.41357 13.1395 8.49104 13.0173 8.63071C12.896 8.76819 12.8302 8.95478 12.8302 9.15554C12.8302 9.57345 13.1166 9.90188 13.4813 9.90297C13.4822 9.90297 13.4822 9.90297 13.4832 9.90297C13.6636 9.90297 13.8307 9.8255 13.9529 9.68583C14.0751 9.54726 14.1419 9.35849 14.1419 9.15445C14.1429 8.73982 13.8546 8.41467 13.4861 8.41357ZM13.8527 9.58872C13.7524 9.7022 13.6226 9.76439 13.4861 9.76439C13.4851 9.76439 13.4841 9.76439 13.4822 9.76439C13.1939 9.76221 12.961 9.48725 12.961 9.15227C12.9619 8.82275 13.1968 8.55433 13.4842 8.55324C13.4851 8.55324 13.4861 8.55324 13.4861 8.55324C13.6226 8.55324 13.7524 8.61543 13.8527 8.73C13.9548 8.84675 14.0112 8.99951 14.0112 9.161C14.0112 9.32139 13.9548 9.47306 13.8527 9.58872Z" fill="#004B8D"/>
<path d="M13.5997 9.17619V9.17291C13.6484 9.15327 13.6999 9.09654 13.6999 9.01361C13.6999 8.9536 13.6818 8.90886 13.6474 8.87831C13.6073 8.8423 13.5481 8.82703 13.4641 8.82703C13.3963 8.82703 13.3343 8.83248 13.2932 8.84012V9.47843H13.4202V9.2242H13.4584C13.5109 9.22529 13.5347 9.24711 13.55 9.32785C13.5672 9.40751 13.5806 9.45988 13.5892 9.47843H13.72C13.7095 9.45334 13.6913 9.36932 13.6741 9.29621C13.6617 9.23729 13.6398 9.19474 13.5997 9.17619ZM13.4717 9.11945H13.4211V8.9405C13.4307 8.93832 13.4479 8.93614 13.4794 8.93614C13.5386 8.93723 13.5739 8.96669 13.5739 9.0267C13.5729 9.08344 13.5357 9.11945 13.4717 9.11945Z" fill="#004B8D"/>
<path d="M50.3476 9.76453C50.1672 9.76453 50.001 9.842 49.8788 9.98166C49.7576 10.1191 49.6917 10.3057 49.6917 10.5065C49.6917 10.9244 49.9781 11.2528 50.3428 11.2539C50.3438 11.2539 50.3438 11.2539 50.3447 11.2539C50.5252 11.2539 50.6923 11.1764 50.8145 11.0368C50.9367 10.8982 51.0035 10.7094 51.0035 10.5054C51.0044 10.0908 50.7161 9.76562 50.3476 9.76453ZM50.7142 10.9397C50.614 11.0532 50.4841 11.1153 50.3476 11.1153C50.3466 11.1153 50.3457 11.1153 50.3438 11.1153C50.0555 11.1132 49.8225 10.8382 49.8225 10.5032C49.8235 10.1737 50.0583 9.90528 50.3457 9.90419C50.3466 9.90419 50.3476 9.90419 50.3476 9.90419C50.4841 9.90419 50.614 9.96639 50.7142 10.081C50.8164 10.1977 50.8727 10.3505 50.8727 10.512C50.8727 10.6713 50.8164 10.824 50.7142 10.9397Z" fill="#004B8D"/>
<path d="M50.4622 10.527V10.5237C50.5109 10.5041 50.5624 10.4474 50.5624 10.3644C50.5624 10.3044 50.5443 10.2597 50.5099 10.2291C50.4698 10.1931 50.4106 10.1779 50.3266 10.1779C50.2588 10.1779 50.1968 10.1833 50.1557 10.191V10.8293H50.2827V10.575H50.3209C50.3734 10.5761 50.3972 10.5979 50.4125 10.6787C50.4297 10.7583 50.4431 10.8107 50.4517 10.8293H50.5825C50.572 10.8042 50.5538 10.7201 50.5366 10.647C50.5233 10.5881 50.5013 10.5445 50.4622 10.527ZM50.3333 10.4703H50.2827V10.2913C50.2922 10.2892 50.3094 10.287 50.3409 10.287C50.4001 10.2881 50.4354 10.3175 50.4354 10.3775C50.4345 10.4332 50.3972 10.4703 50.3333 10.4703Z" fill="#004B8D"/>
</svg>
